<?xml version="1.0" encoding="UTF-8"?><svg id="Artwork" xmlns="http://www.w3.org/2000/svg" viewBox="0 0 272.11 123.6"><defs><style>.cls-1{fill:#fff;}</style></defs><path id="Studio" class="cls-1" d="m26.07,13.8v-4.18c.41-.03.81-.05,1.23-.06,11.42-.36,18.91,9.81,18.91,9.81,0,0-8.09,11.24-16.77,11.24-1.25,0-2.37-.2-3.38-.54v-12.66c4.45.54,5.34,2.5,8.01,6.96l5.94-5.01s-4.34-5.69-11.65-5.69c-.8,0-1.56.06-2.3.14M26.06.02v6.24c.41-.03.82-.06,1.23-.07,15.88-.54,26.23,13.02,26.23,13.02,0,0-11.88,14.45-24.27,14.45-1.13,0-2.2-.1-3.19-.28v3.86c.85.11,1.74.17,2.66.17,11.52,0,19.85-5.88,27.92-12.85,1.34,1.07,6.81,3.68,7.94,4.82-7.67,6.42-25.55,11.6-35.69,11.6-.98,0-1.92-.06-2.84-.15v5.42h43.79V0H26.05v.02Zm0,30.07v3.29c-10.66-1.9-13.61-12.98-13.61-12.98,0,0,5.12-5.67,13.61-6.59v3.61h-.02c-4.46-.54-7.94,3.63-7.94,3.63,0,0,1.95,7.01,7.96,9.03M7.13,19.91s6.32-9.32,18.93-10.28v-3.38C12.09,7.37,0,19.2,0,19.2c0,0,6.85,19.81,26.06,21.62v-3.59c-14.1-1.77-18.93-17.31-18.93-17.31h0Zm141.6-11.17v30.34h8.57V8.74h-8.57,0Zm-67.41-.04v30.38h8.65v-23.07h6.7c2.22,0,3.8.55,4.87,1.7,1.36,1.44,1.91,3.77,1.91,8.03v13.34h8.38v-16.79c0-11.98-7.64-13.6-15.11-13.6h-15.39m81.21.04v30.34h13.9c7.41,0,9.82-1.23,12.44-3.99,1.85-1.94,3.04-6.19,3.04-10.84,0-4.26-1.01-8.07-2.77-10.44-3.17-4.24-7.75-5.07-14.58-5.07h-12.03,0Zm8.5,6.61h3.68c5.35,0,8.8,2.4,8.8,8.63s-3.46,8.63-8.8,8.63h-3.68s0-17.26,0-17.26Zm-34.65-6.61l-7.15,24.05-6.85-24.05h-9.25l9.79,30.34h12.35l9.86-30.34s-8.75,0-8.75,0Zm59.52,30.34h8.57V8.73h-8.57v30.34h0Zm24.02-30.33l-11.97,30.32h8.45l1.89-5.36h14.16l1.79,5.36h9.17l-12.06-30.32h-11.45.02Zm5.56,5.53l5.19,14.2h-10.55l5.35-14.2h0ZM47.3,87.81l-10.2-1.47c-5.82-.92-8.73-3.51-8.73-7.78v-1.04c0-2.48,1.07-4.46,3.2-5.96s5.04-2.25,8.73-2.25h1.04c6.8,0,11.17,2.62,13.13,7.86l8.64-3.72c-1.61-4.09-4.29-7.21-8.04-9.37s-8.29-3.24-13.65-3.24h-1.21c-4.32,0-8.11.69-11.36,2.07s-5.79,3.33-7.6,5.83c-1.81,2.51-2.72,5.46-2.72,8.86v1.04c0,9.5,5.56,15.01,16.68,16.5l10.19,1.55c3.05.4,5.3,1.37,6.74,2.9,1.44,1.53,2.16,3.47,2.16,5.83v.95c0,2.82-1.12,4.97-3.37,6.44s-5.44,2.2-9.59,2.2h-1.04c-3.92,0-7.11-.75-9.59-2.25s-4.35-3.74-5.62-6.74l-8.29,4.32c3.46,8.81,11.32,13.22,23.59,13.22h1.21c7.14,0,12.69-1.53,16.63-4.58,3.94-3.05,5.92-7.31,5.92-12.79v-1.04c0-4.78-1.4-8.68-4.19-11.71-2.79-3.02-7.01-4.91-12.66-5.66v.03Zm52.62-1.73l1.12-7.86h-14.43v-13.05h-9.5v13.05h-9.33v7.86h9.33v22.29c0,4.67,1.18,8.25,3.54,10.76,2.36,2.51,6.34,3.76,11.92,3.76h8.47v-8.04h-7.52c-2.3,0-4.03-.53-5.18-1.6s-1.73-2.84-1.73-5.31v-21.86h13.31,0Zm38.19,16.5c0,2.88-.5,5.29-1.51,7.21-1.01,1.93-2.3,3.36-3.89,4.28-1.58.92-3.27,1.38-5.05,1.38h-.61c-3,0-5.23-.96-6.7-2.89s-2.2-4.74-2.2-8.42v-25.92h-9.5v27.3c0,5.88,1.45,10.36,4.36,13.44s6.81,4.62,11.71,4.62h.78c3.17,0,5.9-.69,8.21-2.07,2.3-1.38,4.12-3.25,5.44-5.62v6.57h8.47v-44.24h-9.5v24.37h-.01Zm51.49-19.09c-1.44-2.07-3.3-3.67-5.57-4.8-2.28-1.12-4.88-1.68-7.82-1.68h-.6c-3.63,0-6.86.85-9.68,2.55-2.82,1.7-5.04,4.16-6.65,7.39-1.61,3.23-2.42,7.17-2.42,11.84v2.94c0,4.72.81,8.71,2.42,11.97,1.61,3.25,3.83,5.72,6.65,7.39,2.82,1.67,6.05,2.51,9.68,2.51h.6c3.4,0,6.31-.68,8.73-2.03s4.35-3.24,5.79-5.66v6.57h8.38v-63.07h-9.5v24.11-.03Zm.09,18.14c0,3.28-.53,5.93-1.6,7.95s-2.45,3.5-4.15,4.45-3.53,1.43-5.49,1.43h-.69c-3.28,0-6.01-1.11-8.17-3.33s-3.24-5.66-3.24-10.33v-3.02c0-4.67,1.08-8.09,3.24-10.28s4.88-3.28,8.17-3.28h.69c1.96,0,3.79.48,5.49,1.43,1.7.95,3.08,2.43,4.15,4.45,1.07,2.02,1.6,4.64,1.6,7.86v2.68h0Zm21.08,20.82h9.5v-44.24h-9.5v44.24Zm-.17-52.1h9.85v-9.94h-9.85v9.94Zm58.79,16.72c-1.81-3.25-4.31-5.75-7.47-7.47-3.17-1.73-6.74-2.59-10.71-2.59h-.78c-3.97,0-7.53.86-10.67,2.59-3.14,1.73-5.63,4.22-7.47,7.47s-2.76,7.21-2.76,11.88v2.77c0,4.61.92,8.55,2.76,11.84,1.84,3.28,4.33,5.78,7.47,7.47,3.14,1.7,6.7,2.55,10.67,2.55h.78c3.97,0,7.54-.85,10.71-2.55,3.17-1.7,5.66-4.19,7.47-7.47s2.72-7.23,2.72-11.84v-2.85c0-4.61-.91-8.54-2.72-11.79h0Zm-6.78,14.82c0,4.55-1.1,7.95-3.28,10.2-2.19,2.25-4.92,3.37-8.21,3.37h-.69c-3.23,0-5.93-1.12-8.12-3.37s-3.28-5.64-3.28-10.2v-3.2c0-4.55,1.09-7.93,3.28-10.15s4.9-3.33,8.12-3.33h.69c3.28,0,6.02,1.11,8.21,3.33s3.28,5.6,3.28,10.15v3.2Z"/></svg>